# xmcd
#
# Track frame offsets:
#   150
#   17282
#   38038
#   56768
#   79558
#   96862
#   119293
#   137543
#   154810
#   171983
#   187447
#   203329
#   220327
#   241138
#   262472
#   279190
#   299400
#
# Disc length: 4305 seconds
#
# Revision: 0
# Processed by: cddbd v1.5PL3 Copyright (c) Steve Scherf et al.
# Submitted via: CDDB2my 1.0.0
#
DISCID=f410cf11
DTITLE=blu cantrel - t
DYEAR=1900
DGENRE=R and B
TTITLE0=01-blu_cantrell-i_love_you-wcr
TTITLE1=02-blu_cantrell-sleep_in_the_middle-wcr
TTITLE2=03-blu_cantrell-unhappy-wcr
TTITLE3=04-blu_cantrell-impatient_ft._lil_kim__fat_joe-wcr
TTITLE4=05-blu_cantrell-breathe_ft._sean_paul-wcr
TTITLE5=06-blu_cantrell-risk_it_all-wcr
TTITLE6=07-blu_cantrell-dont_wanna_say_goodbye-wcr
TTITLE7=08-blu_cantrell-happily_ever_after-wcr
TTITLE8=09-blu_cantrell-holding_on_to_love-wcr
TTITLE9=10-blu_cantrell-let_her_go-wcr
TTITLE10=11-blu_cantrell-make_me_wanna_scream_ft._ian_lewis-wcr
TTITLE11=12-blu_cantrell-no_place_like_home-wcr
TTITLE12=celia_delver-01-si_tu_voulais-rpm
TTITLE13=celia_delver-03-lanmou_se_sa_ki_pli_bel-rpm
TTITLE14=celia_delver-10-pa_fe_foli-instrumental-rpm
TTITLE15=celia_delver-07-yinki_pou-rpm
TTITLE16=celia_delver-05-heritage-rpm
EXTD=
EXTT0=
EXTT1=
EXTT2=
EXTT3=
EXTT4=
EXTT5=
EXTT6=
EXTT7=
EXTT8=
EXTT9=
EXTT10=
EXTT11=
EXTT12=
EXTT13=
EXTT14=
EXTT15=
EXTT16=
PLAYORDER=
